<svg width="22" height="28" viewBox="0 0 22 28" fill="none" xmlns="http://www.w3.org/2000/svg">
<path fill-rule="evenodd" clip-rule="evenodd" d="M19.005 0.257301H7.116C5.80952 0.257301 4.75246 1.38888 4.75246 2.77192H16.6295C17.936 2.77192 19.005 3.9035 19.005 5.28654V21.6316L21.3804 22.8889V2.77192C21.3804 1.38888 20.3114 0.257301 19.005 0.257301ZM14.2543 7.80116V24.1085L9.25402 21.8327L8.31573 21.4053L7.37744 21.8327L2.37719 24.1085V7.80116H14.2543ZM2.37712 5.28653H14.2542C15.5607 5.28653 16.6296 6.41811 16.6296 7.80115V27.9181L8.31566 24.1462L0.00170898 27.9181V7.80115C0.00170898 6.41811 1.07065 5.28653 2.37712 5.28653Z" fill="#2F80ED"/>
</svg>
