<svg width="26" height="25" viewBox="0 0 26 25" fill="none" xmlns="http://www.w3.org/2000/svg">
<path fill-rule="evenodd" clip-rule="evenodd" d="M19.2339 5.1725H23.0058C24.4015 5.1725 25.5205 6.29151 25.5205 7.68712V21.5175C25.5205 22.9131 24.4015 24.0322 23.0058 24.0322H2.88889C1.49327 24.0322 0.374268 22.9131 0.374268 21.5175V7.68712C0.374268 6.29151 1.49327 5.1725 2.88889 5.1725H6.66082V2.65788C6.66082 1.26227 7.77982 0.143265 9.17544 0.143265H16.7193C18.1149 0.143265 19.2339 1.26227 19.2339 2.65788V5.1725ZM16.7193 2.6579H9.17546V5.17252H16.7193V2.6579ZM23.0058 21.5175H2.88887V19.0029H23.0058V21.5175ZM2.88887 15.231H23.0058V7.68712H19.2339V10.2017H16.7193V7.68712H9.17542V10.2017H6.6608V7.68712H2.88887V15.231Z" fill="#F2F2F2"/>
</svg>
