<svg width="32" height="31" viewBox="0 0 32 31" fill="none" xmlns="http://www.w3.org/2000/svg">
<path fill-rule="evenodd" clip-rule="evenodd" d="M4.70175 4.4006H27.3333C28.7164 4.4006 29.848 5.53218 29.848 6.91522V23.2603C29.848 24.6433 28.7164 25.7749 27.3333 25.7749H4.70175C3.31871 25.7749 2.18713 24.6433 2.18713 23.2603V6.91522C2.18713 5.53218 3.31871 4.4006 4.70175 4.4006ZM4.70172 6.91525V23.2603H14.7602V6.91525H4.70172ZM27.3333 23.2603H17.2749V6.91525H27.3333V23.2603ZM26.0761 11.3158H18.5322V13.2018H26.0761V11.3158ZM18.5322 14.4591H26.0761V16.3451H18.5322V14.4591ZM26.0761 17.6024H18.5322V19.4883H26.0761V17.6024Z" fill="white"/>
</svg>
