<svg width="31" height="31" viewBox="0 0 31 31" fill="none" xmlns="http://www.w3.org/2000/svg">
<path fill-rule="evenodd" clip-rule="evenodd" d="M3.9299 4.4006H26.5615C27.9445 4.4006 29.0761 5.53218 29.0761 6.91522V23.2603C29.0761 24.6433 27.9445 25.7749 26.5615 25.7749H3.9299C2.54686 25.7749 1.41528 24.6433 1.41528 23.2603V6.91522C1.41528 5.53218 2.54686 4.4006 3.9299 4.4006ZM3.92987 6.91525V23.2603H13.9883V6.91525H3.92987ZM26.5615 23.2603H16.503V6.91525H26.5615V23.2603ZM25.3042 11.3158H17.7604V13.2018H25.3042V11.3158ZM17.7604 14.4591H25.3042V16.3451H17.7604V14.4591ZM25.3042 17.6024H17.7604V19.4883H25.3042V17.6024Z" fill="#F8B76B"/>
</svg>
