<svg width="26" height="13" viewBox="0 0 26 13" fill="none" xmlns="http://www.w3.org/2000/svg">
<path fill-rule="evenodd" clip-rule="evenodd" d="M11.3509 10.0585H6.32171C4.24714 10.0585 2.54978 8.36111 2.54978 6.28655C2.54978 4.21199 4.24714 2.51462 6.32171 2.51462H11.3509V0H6.32171C2.85153 0 0.0351562 2.81637 0.0351562 6.28655C0.0351562 9.75673 2.85153 12.5731 6.32171 12.5731H11.3509V10.0585ZM18.8948 2.78406e-05H13.8656V2.51465H18.8948C20.9694 2.51465 22.6667 4.21202 22.6667 6.28658C22.6667 8.36114 20.9694 10.0585 18.8948 10.0585H13.8656V12.5731H18.8948C22.365 12.5731 25.1813 9.75675 25.1813 6.28658C25.1813 2.8164 22.365 2.78406e-05 18.8948 2.78406e-05ZM17.6376 5.02924H7.57907V7.54386H17.6376V5.02924Z" fill="#2F80ED"/>
</svg>
