<svg width="21" height="6" viewBox="0 0 21 6" fill="none" xmlns="http://www.w3.org/2000/svg">
<path fill-rule="evenodd" clip-rule="evenodd" d="M3.07016 0.573078C1.68712 0.573078 0.555542 1.70466 0.555542 3.0877C0.555542 4.47074 1.68712 5.60232 3.07016 5.60232C4.4532 5.60232 5.58478 4.47074 5.58478 3.0877C5.58478 1.70466 4.4532 0.573078 3.07016 0.573078ZM18.1579 0.573078C16.7748 0.573078 15.6433 1.70466 15.6433 3.0877C15.6433 4.47074 16.7748 5.60232 18.1579 5.60232C19.5409 5.60232 20.6725 4.47074 20.6725 3.0877C20.6725 1.70466 19.5409 0.573078 18.1579 0.573078ZM8.0994 3.0877C8.0994 1.70466 9.23098 0.573078 10.614 0.573078C11.9971 0.573078 13.1286 1.70466 13.1286 3.0877C13.1286 4.47074 11.9971 5.60232 10.614 5.60232C9.23098 5.60232 8.0994 4.47074 8.0994 3.0877Z" fill="white"/>
</svg>
