<svg width="21" height="6" viewBox="0 0 21 6" fill="none" xmlns="http://www.w3.org/2000/svg">
<path fill-rule="evenodd" clip-rule="evenodd" d="M2.73679 0.573078C1.35375 0.573078 0.222168 1.70466 0.222168 3.0877C0.222168 4.47074 1.35375 5.60232 2.73679 5.60232C4.11983 5.60232 5.25141 4.47074 5.25141 3.0877C5.25141 1.70466 4.11983 0.573078 2.73679 0.573078ZM17.8245 0.573078C16.4415 0.573078 15.3099 1.70466 15.3099 3.0877C15.3099 4.47074 16.4415 5.60232 17.8245 5.60232C19.2075 5.60232 20.3391 4.47074 20.3391 3.0877C20.3391 1.70466 19.2075 0.573078 17.8245 0.573078ZM7.76603 3.0877C7.76603 1.70466 8.89761 0.573078 10.2806 0.573078C11.6637 0.573078 12.7953 1.70466 12.7953 3.0877C12.7953 4.47074 11.6637 5.60232 10.2806 5.60232C8.89761 5.60232 7.76603 4.47074 7.76603 3.0877Z" fill="#4F4F4F"/>
</svg>
