<svg width="31" height="31" viewBox="0 0 31 31" fill="none" xmlns="http://www.w3.org/2000/svg">
<path fill-rule="evenodd" clip-rule="evenodd" d="M20.6434 2.51455H4.29833C3.6068 2.51455 3.04102 3.08034 3.04102 3.77186V21.3742L8.07025 16.345H20.6434C21.3349 16.345 21.9007 15.7792 21.9007 15.0876V3.77186C21.9007 3.08034 21.3349 2.51455 20.6434 2.51455ZM19.3861 5.0291V13.8303H7.02671L6.2849 14.5721L5.55566 15.3013V5.0291H19.3861ZM24.4153 7.54383H26.9299C27.6214 7.54383 28.1872 8.10962 28.1872 8.80114V27.6608L23.1579 22.6315H9.32754C8.63602 22.6315 8.07023 22.0658 8.07023 21.3742V18.8596H24.4153V7.54383Z" fill="white"/>
</svg>
