<svg width="31" height="31" viewBox="0 0 31 31" fill="none" xmlns="http://www.w3.org/2000/svg">
<path fill-rule="evenodd" clip-rule="evenodd" d="M20.8186 2.51455H4.47362C3.7821 2.51455 3.21631 3.08034 3.21631 3.77186V21.3742L8.24555 16.345H20.8186C21.5102 16.345 22.076 15.7792 22.076 15.0876V3.77186C22.076 3.08034 21.5102 2.51455 20.8186 2.51455ZM19.5613 5.0291V13.8303H7.20194L6.46013 14.5721L5.73089 15.3013V5.0291H19.5613ZM24.5906 7.54383H27.1052C27.7968 7.54383 28.3625 8.10962 28.3625 8.80114V27.6608L23.3333 22.6315H9.50289C8.81137 22.6315 8.24558 22.0658 8.24558 21.3742V18.8596H24.5906V7.54383Z" fill="#8885FF"/>
</svg>
