<svg width="26" height="26" viewBox="0 0 26 26" fill="none" xmlns="http://www.w3.org/2000/svg">
<path fill-rule="evenodd" clip-rule="evenodd" d="M13.2507 0.514629C6.31036 0.514629 0.690186 6.14738 0.690186 13.0877C0.690186 20.0281 6.31036 25.6608 13.2507 25.6608C20.2036 25.6608 25.8364 20.0281 25.8364 13.0877C25.8364 6.14738 20.2036 0.514629 13.2507 0.514629ZM13.2635 23.1462C7.70624 23.1462 3.20507 18.645 3.20507 13.0877C3.20507 7.53043 7.70624 3.02926 13.2635 3.02926C18.8209 3.02926 23.322 7.53043 23.322 13.0877C23.322 18.645 18.8209 23.1462 13.2635 23.1462ZM12.006 6.80119H13.8919V13.4021L19.5498 16.7591L18.6068 18.3056L12.006 14.345V6.80119Z" fill="#2F80ED"/>
</svg>
