<svg width="21" height="21" viewBox="0 0 21 21" fill="none" xmlns="http://www.w3.org/2000/svg">
<path fill-rule="evenodd" clip-rule="evenodd" d="M10.1755 0.0292206C7.39681 0.0292206 5.14623 2.27981 5.14623 5.05846C5.14623 7.83712 7.39681 10.0877 10.1755 10.0877C12.9541 10.0877 15.2047 7.83712 15.2047 5.05846C15.2047 2.27981 12.9541 0.0292206 10.1755 0.0292206ZM12.69 5.05848C12.69 3.67544 11.5585 2.54386 10.1754 2.54386C8.79238 2.54386 7.6608 3.67544 7.6608 5.05848C7.6608 6.44152 8.79238 7.5731 10.1754 7.5731C11.5585 7.5731 12.69 6.44152 12.69 5.05848ZM17.7192 17.6316C17.4678 16.7389 13.5701 15.1169 10.1754 15.1169C6.79321 15.1169 2.9207 16.7263 2.63152 17.6316H17.7192ZM0.116943 17.6315C0.116943 14.2871 6.81841 12.6023 10.1754 12.6023C13.5324 12.6023 20.2339 14.2871 20.2339 17.6315V20.1462H0.116943V17.6315Z" fill="white"/>
</svg>
